<svg width="241" height="49" viewBox="0 0 241 49" fill="none" xmlns="http://www.w3.org/2000/svg">
<path d="M233.185 41.2932C233.966 40.5401 235.012 40.1636 236.323 40.1636C237.606 40.1636 238.652 40.5401 239.461 41.2932C240.269 42.0183 240.674 43.0503 240.674 44.3891C240.674 45.7279 240.269 46.7738 239.461 47.5268C238.652 48.2799 237.606 48.6564 236.323 48.6564C235.068 48.6564 234.036 48.2799 233.227 47.5268C232.418 46.7738 232.014 45.7279 232.014 44.3891C232.014 43.0782 232.404 42.0462 233.185 41.2932Z" fill="#D1F801"/>
<path d="M225.062 27.6962C226.429 29.2023 227.112 31.1826 227.112 33.637V48.1125H219.916V35.938C219.916 34.5993 219.61 33.5812 218.996 32.884C218.382 32.1867 217.56 31.838 216.528 31.838C215.468 31.838 214.575 32.2006 213.85 32.9258C213.125 33.651 212.762 34.655 212.762 35.938V48.1125H205.566V17.5717H212.679V28.9095C214.547 26.5666 216.82 25.3952 219.498 25.3952C221.869 25.3952 223.724 26.1622 225.062 27.6962Z" fill="black"/>
<path d="M196.67 25.4371C198.706 25.4371 200.324 25.702 201.523 26.232V33.2187C200.212 32.0752 198.762 31.5034 197.172 31.5034C195.61 31.5034 194.327 32.0333 193.323 33.0932C192.347 34.1252 191.859 35.4221 191.859 36.984C191.859 38.5459 192.375 39.8707 193.407 40.9585C194.466 42.0184 195.763 42.5483 197.297 42.5483C198.971 42.5483 200.449 41.9905 201.732 40.8748V47.6524C201.007 47.9592 200.184 48.1962 199.264 48.3636C198.371 48.5309 197.465 48.6146 196.544 48.6146C194.369 48.6146 192.389 48.0986 190.604 47.0667C188.818 46.0347 187.41 44.6401 186.378 42.883C185.346 41.098 184.83 39.1456 184.83 37.0258C184.83 34.934 185.332 33.0095 186.336 31.2524C187.34 29.4673 188.749 28.0588 190.562 27.0269C192.375 25.967 194.411 25.4371 196.67 25.4371Z" fill="black"/>
<path d="M176.266 42.7154C177.912 42.1854 179.209 41.4742 180.157 40.5817V46.3552C178.902 47.164 177.494 47.7637 175.932 48.1541C174.398 48.5725 172.919 48.7817 171.497 48.7817C169.266 48.7817 167.271 48.2797 165.514 47.2756C163.757 46.2715 162.377 44.8769 161.372 43.0919C160.396 41.3069 159.908 39.2987 159.908 37.0674C159.908 34.8919 160.396 32.9395 161.372 31.2103C162.349 29.4531 163.701 28.0725 165.431 27.0684C167.188 26.0644 169.154 25.5623 171.33 25.5623C173.617 25.5623 175.583 26.1341 177.229 27.2776C178.874 28.3933 180.115 29.8854 180.952 31.7542C181.817 33.6229 182.277 35.6729 182.333 37.9042L167.313 41.7113C168.317 42.8827 169.754 43.4684 171.622 43.4684C173.073 43.4684 174.621 43.2174 176.266 42.7154ZM167.773 32.7164C167.076 33.8878 166.728 35.2545 166.728 36.8164L166.769 36.9419L175.262 34.7664C174.983 33.595 174.467 32.6746 173.714 32.0052C172.989 31.3079 172.083 30.9593 170.995 30.9593C169.572 30.9593 168.499 31.545 167.773 32.7164Z" fill="black"/>
<path d="M149.766 25.2276V48.1123H142.445V25.2276H133.659V18.7847H158.552V25.2276H149.766Z" fill="black"/>
<path d="M119.829 43.9706C121.391 43.9706 122.73 43.4546 123.845 42.4227V38.8247C122.841 38.3227 121.698 38.0716 120.415 38.0716C119.216 38.0716 118.239 38.3506 117.486 38.9084C116.733 39.4383 116.357 40.1495 116.357 41.042C116.357 41.9067 116.691 42.6179 117.361 43.1757C118.03 43.7057 118.853 43.9706 119.829 43.9706ZM119.996 25.5206C127.248 25.5206 130.874 28.7142 130.874 35.1012V48.5308L123.804 45.8114C122.074 47.6801 119.871 48.6145 117.193 48.6145C115.715 48.6145 114.376 48.3356 113.177 47.7778C112.006 47.192 111.071 46.3693 110.374 45.3094C109.677 44.2216 109.328 42.9386 109.328 41.4604C109.328 39.1455 110.137 37.3883 111.755 36.189C113.4 34.9897 115.548 34.39 118.198 34.39C120.345 34.39 122.228 34.7108 123.845 35.3523V34.8921C123.845 33.5533 123.371 32.591 122.423 32.0053C121.503 31.3917 120.094 31.0849 118.198 31.0849C115.827 31.0849 113.498 31.5591 111.211 32.5074V27.2778C112.633 26.7199 114.028 26.2876 115.394 25.9808C116.761 25.674 118.295 25.5206 119.996 25.5206Z" fill="black"/>
<path d="M105.971 48.1124H98.7753V35.8961C98.7753 34.5573 98.4685 33.5393 97.8548 32.842C97.2691 32.1447 96.4742 31.7961 95.4701 31.7961C94.3545 31.7961 93.4759 32.2005 92.8344 33.0094C92.1929 33.7903 91.8722 34.7526 91.8722 35.8961V48.1124H84.6763V35.8961C84.6763 34.6131 84.3834 33.609 83.7977 32.8839C83.212 32.1587 82.3892 31.7961 81.3293 31.7961C80.2974 31.7961 79.4467 32.1726 78.7773 32.9257C78.1358 33.6509 77.8151 34.641 77.8151 35.8961V48.1124H70.6191V25.8971L77.7732 28.8675C79.6419 26.5526 81.8872 25.3951 84.5089 25.3951C85.9035 25.3951 87.1725 25.7019 88.3161 26.3155C89.4596 26.9291 90.3242 27.8495 90.9099 29.0767C91.8861 27.8774 92.9739 26.9709 94.1732 26.3573C95.4004 25.7158 96.8089 25.3951 98.3987 25.3951C99.9606 25.3951 101.313 25.7577 102.457 26.4828C103.6 27.208 104.465 28.1981 105.051 29.4532C105.664 30.7083 105.971 32.089 105.971 33.5951V48.1124Z" fill="black"/>
<path d="M67.5539 25.5206C67.8328 25.5206 68.028 25.5346 68.1396 25.5625V33.0512C67.9164 32.9955 67.6375 32.9676 67.3028 32.9676C65.2668 32.9676 63.677 33.5951 62.5334 34.8502C61.4178 36.0774 60.86 37.9182 60.86 40.3727V48.1125H53.6641V25.8972L60.86 30.0808C61.5573 28.6026 62.4358 27.473 63.4957 26.6921C64.5834 25.9111 65.9362 25.5206 67.5539 25.5206Z" fill="black"/>
<path d="M49.1342 25.8971V48.1124H41.9383V25.8971H49.1342ZM42.4821 17.0695C43.2631 16.4001 44.2672 16.0654 45.4944 16.0654C46.7216 16.0654 47.7257 16.4001 48.5066 17.0695C49.2876 17.711 49.678 18.6314 49.678 19.8307C49.678 21.0022 49.2876 21.9226 48.5066 22.592C47.7257 23.2613 46.7216 23.596 45.4944 23.596C44.2951 23.596 43.3049 23.2613 42.524 22.592C41.743 21.9226 41.3525 21.0022 41.3525 19.8307C41.3525 18.6314 41.7291 17.711 42.4821 17.0695Z" fill="black"/>
<path d="M37.2676 10.5693H12.0791V23.1201C11.9453 23.2349 11.8132 23.3503 11.6826 23.4658C11.0912 22.8343 10.5527 22.2155 10.0732 21.6328C9.23811 20.6178 8.58949 19.7263 8.15332 19.0928C7.9356 18.7765 7.77125 18.5244 7.66309 18.3555C7.60927 18.2714 7.56937 18.2071 7.54395 18.166C7.53146 18.1458 7.52203 18.131 7.5166 18.1221C7.51435 18.1184 7.51182 18.1158 7.51074 18.1143L7.51172 18.1133C7.07406 17.384 6.16738 17.086 5.38184 17.4121C4.59633 17.7384 4.16816 18.5912 4.37598 19.416L5.9873 25.8105L4.375 32.3096C4.17055 33.134 4.5998 33.9842 5.38477 34.3086C6.16981 34.6327 7.07473 34.3338 7.51172 33.6055C7.51268 33.6039 7.51438 33.6013 7.5166 33.5977C7.52202 33.5888 7.53123 33.5733 7.54395 33.5527C7.5694 33.5116 7.60919 33.4475 7.66309 33.3633C7.77124 33.1943 7.93561 32.9432 8.15332 32.627C8.58949 31.9934 9.23797 31.1021 10.0732 30.0869C10.5529 29.504 11.091 28.8847 11.6826 28.2529C11.813 28.3683 11.9455 28.483 12.0791 28.5977V48.1123H0V0H37.2676V10.5693Z" fill="#0367FD"/>
<path d="M13.7607 25.8065C13.7607 25.8065 19.7662 20.659 25.7716 20.659C31.7771 20.659 37.7825 25.8065 37.7825 25.8065C37.7825 25.8065 33.4929 30.954 26.6295 30.954C19.7662 30.954 13.7607 25.8065 13.7607 25.8065Z" fill="#0367FD"/>
</svg>
